<svg width="426" height="435" viewBox="0 0 426 435" fill="none" xmlns="http://www.w3.org/2000/svg">
<g opacity="0.3">
<ellipse cx="280.47" cy="237.112" rx="177.237" ry="101.331" transform="rotate(105.411 280.47 237.112)" stroke="#092C42" stroke-width="0.3"/>
<ellipse cx="271.277" cy="234.579" rx="177.237" ry="101.331" transform="rotate(105.411 271.277 234.579)" stroke="#092C42" stroke-width="0.3"/>
<ellipse cx="262.083" cy="232.046" rx="177.237" ry="101.331" transform="rotate(105.411 262.083 232.046)" stroke="#092C42" stroke-width="0.3"/>
<ellipse cx="252.888" cy="229.509" rx="177.237" ry="101.331" transform="rotate(105.411 252.888 229.509)" stroke="#092C42" stroke-width="0.3"/>
<ellipse cx="243.695" cy="226.973" rx="177.237" ry="101.331" transform="rotate(105.411 243.695 226.973)" stroke="#092C42" stroke-width="0.3"/>
<ellipse cx="234.501" cy="224.44" rx="177.237" ry="101.331" transform="rotate(105.411 234.501 224.44)" stroke="#092C42" stroke-width="0.3"/>
<ellipse cx="225.307" cy="221.907" rx="177.237" ry="101.331" transform="rotate(105.411 225.307 221.907)" stroke="#092C42" stroke-width="0.3"/>
<ellipse cx="216.111" cy="219.372" rx="177.237" ry="101.331" transform="rotate(105.411 216.111 219.372)" stroke="#092C42" stroke-width="0.3"/>
<ellipse cx="208.815" cy="215.634" rx="177.237" ry="101.331" transform="rotate(105.411 208.815 215.634)" stroke="#092C42" stroke-width="0.3"/>
<ellipse cx="199.62" cy="213.098" rx="177.237" ry="101.331" transform="rotate(105.411 199.62 213.098)" stroke="#092C42" stroke-width="0.3"/>
<ellipse cx="190.425" cy="210.561" rx="177.237" ry="101.331" transform="rotate(105.411 190.425 210.561)" stroke="#092C42" stroke-width="0.3"/>
<ellipse cx="181.232" cy="208.028" rx="177.237" ry="101.331" transform="rotate(105.411 181.232 208.028)" stroke="#092C42" stroke-width="0.3"/>
<ellipse cx="172.964" cy="205.665" rx="177.237" ry="101.331" transform="rotate(105.411 172.964 205.665)" stroke="#092C42" stroke-width="0.3"/>
<ellipse cx="163.769" cy="203.132" rx="177.237" ry="101.331" transform="rotate(105.411 163.769 203.132)" stroke="#092C42" stroke-width="0.3"/>
<ellipse cx="154.575" cy="200.598" rx="177.237" ry="101.331" transform="rotate(105.411 154.575 200.598)" stroke="#092C42" stroke-width="0.3"/>
<ellipse cx="145.38" cy="198.061" rx="177.237" ry="101.331" transform="rotate(105.411 145.38 198.061)" stroke="#092C42" stroke-width="0.3"/>
</g>
</svg>
